<svg viewBox="0 0 512 512" xmlns="http://www.w3.org/2000/svg" fill-rule="evenodd" clip-rule="evenodd" stroke-linejoin="round" stroke-miterlimit="2"><path d="M506 116v280c0 60.71-49.29 110-110 110H116C55.29 506 6 456.71 6 396V116C6 55.289 55.29 6 116 6h280c60.71 0 110 49.289 110 110z" fill="#ff5a00"/><path d="M310.05 143.5h15.694c22.062 1.25 45.487 5.35 63.056 19.794 14.031 11.362 19.975 30.787 16.531 48.287-2.644 13.057-8.662 25.094-15.144 36.6-13.143 22.775-29.3 43.563-44.674 64.838-2.75 3.519-4.907 7.825-4.625 12.406.25 3.631 3.03 6.575 6.293 7.869 6.319 2.569 13.313 2.062 19.957 1.694 20.993-2.2 41.225-8.57 61.25-14.957 1.525-.95 2.03.6 2.612 1.713-21.275 14.187-44.169 26.018-68.237 34.725-13.313 4.462-27.388 8.7-41.575 7.037-7.457-.744-14.932-5.187-17.27-12.618-2.893-9.675-1.83-20.394 2.357-29.538 6.369-14.281 16.25-26.55 25.625-38.938 15.538-20.368 31.575-40.624 43.775-63.262 4.031-8.031 8.331-17.781 4.331-26.644-3.775-8.175-11.968-12.987-19.818-16.618-13.932-6.232-28.794-9.982-43.444-14.144a575.641 575.641 0 00-6.6 4.394c5.094 3.887 10.187 7.78 15.231 11.737-19.281 3.475-38.494 7.363-57.475 12.2-28.912 7.175-57.131 16.781-85.094 26.969 2.732 5.437 5.438 10.9 8.032 16.412-6.32 6.988-12.594 14.05-18.913 21.044 15.188 4.538 31.55 5.163 47.038 1.731 13.243-2.962 25.693-9.306 35.812-18.356-2.756-3.425-6.231-6.181-9.981-8.45 12.294.256 23.475 10.975 23.5 23.406-2.406.013-4.8.032-7.175.044a49.042 49.042 0 00-2.181-7.894c-13.957 12.619-31.988 20.513-50.67 22.55-16.455 1.9-33.287-.368-48.774-6.156 1.044 9.581 2.087 19.119 3.056 28.7-8.794 3.425-16.969 8.381-24.281 14.356-5.813 5.069-11.575 10.9-13.794 18.494-2.131 6.688 1.338 14.281 7.194 17.869 7.106 4.4 15.394 6.437 23.594 7.619 10.806 1.412 21.73 1.293 32.587.53 21.319-1.574 42.388-5.58 63.125-10.6 2.063-.837 3.038 2.57.925 3.1-16.55 8.52-33.862 15.695-51.919 20.326-16.968 4.375-34.443 6.619-51.943 7.219-17.85-.55-36.807-4-50.95-15.694C86.58 344.775 81.044 331.256 81 317.856v-.718c.35-14.17 5.138-27.87 12.038-40.138 9.075-17.319 20.256-33.569 33.475-47.987 22.843-25.163 51.5-44.632 82.312-58.732 31.919-14.468 66.088-24.862 101.225-26.781z" fill="#fff" fill-rule="nonzero"/></svg>